<svg width="1200" height="800" viewBox="0 0 1200 800" xmlns="http://www.w3.org/2000/svg" role="img" aria-label="Beyond Classroom project thumbnail">
  <defs>
    <linearGradient id="bg-bc" x1="0" y1="0" x2="1" y2="1">
      <stop offset="0%" stop-color="#0f172a"/>
      <stop offset="100%" stop-color="#1e3a8a"/>
    </linearGradient>
    <linearGradient id="paper-bc" x1="0" y1="0" x2="1" y2="1">
      <stop offset="0%" stop-color="#f8fafc"/>
      <stop offset="100%" stop-color="#e2e8f0"/>
    </linearGradient>
    <linearGradient id="accent-bc" x1="0" y1="0" x2="1" y2="0">
      <stop offset="0%" stop-color="#f97316"/>
      <stop offset="100%" stop-color="#facc15"/>
    </linearGradient>
  </defs>
  <rect width="1200" height="800" fill="url(#bg-bc)"/>

  <path d="M120 630c140-120 280-180 420-180s280 60 420 180" fill="none" stroke="#1d4ed8" stroke-width="12" opacity="0.5"/>
  <path d="M160 650c120-100 240-150 360-150s240 50 360 150" fill="none" stroke="#60a5fa" stroke-width="8" opacity="0.5"/>

  <rect x="120" y="110" width="520" height="560" rx="32" fill="url(#paper-bc)"/>
  <rect x="160" y="170" width="260" height="14" rx="7" fill="#1e3a8a"/>
  <rect x="160" y="210" width="360" height="10" rx="5" fill="#94a3b8"/>
  <rect x="160" y="240" width="320" height="10" rx="5" fill="#94a3b8"/>

  <rect x="700" y="140" width="380" height="210" rx="26" fill="#111827" opacity="0.85"/>
  <rect x="730" y="170" width="160" height="10" rx="5" fill="#38bdf8"/>
  <rect x="730" y="200" width="260" height="10" rx="5" fill="#64748b"/>
  <rect x="730" y="230" width="220" height="10" rx="5" fill="#64748b"/>
  <rect x="730" y="270" width="220" height="44" rx="22" fill="url(#accent-bc)"/>
  <text x="840" y="298" text-anchor="middle" fill="#0f172a" font-size="18" font-weight="700" font-family="Space Grotesk, Poppins, Arial, sans-serif">Quick Setup</text>

  <g transform="translate(700 390)">
    <rect width="380" height="150" rx="26" fill="#0f172a" opacity="0.8"/>
    <circle cx="70" cy="75" r="38" fill="#f97316"/>
    <path d="M52 75h36" stroke="#0f172a" stroke-width="8" stroke-linecap="round"/>
    <path d="M70 57v36" stroke="#0f172a" stroke-width="8" stroke-linecap="round"/>
    <text x="140" y="82" fill="#e2e8f0" font-size="18" font-weight="600" font-family="Space Grotesk, Poppins, Arial, sans-serif">Secure Auth</text>
  </g>

  <text x="120" y="520" fill="#0f172a" font-size="54" font-weight="700" font-family="Space Grotesk, Poppins, Arial, sans-serif">Beyond Classroom</text>
  <text x="120" y="570" fill="#334155" font-size="22" font-family="Space Grotesk, Poppins, Arial, sans-serif">Subjects, timetables, assignments, exams, courses</text>

  <g transform="translate(120 610)">
    <rect width="150" height="40" rx="20" fill="#1e3a8a"/>
    <text x="75" y="26" text-anchor="middle" fill="#e2e8f0" font-size="18" font-weight="600" font-family="Space Grotesk, Poppins, Arial, sans-serif">PHP</text>
  </g>
  <g transform="translate(290 610)">
    <rect width="160" height="40" rx="20" fill="#0ea5e9"/>
    <text x="80" y="26" text-anchor="middle" fill="#0f172a" font-size="18" font-weight="600" font-family="Space Grotesk, Poppins, Arial, sans-serif">MySQL</text>
  </g>
  <g transform="translate(470 610)">
    <rect width="200" height="40" rx="20" fill="#f97316"/>
    <text x="100" y="26" text-anchor="middle" fill="#0f172a" font-size="18" font-weight="600" font-family="Space Grotesk, Poppins, Arial, sans-serif">JavaScript</text>
  </g>
</svg>
