<svg width="1200" height="800" viewBox="0 0 1200 800" xmlns="http://www.w3.org/2000/svg" role="img" aria-label="Beyond Classroom project thumbnail">
  <defs>
    <linearGradient id="bg-bc" x1="0" y1="0" x2="1" y2="1">
      <stop offset="0%" stop-color="#0b223d"/>
      <stop offset="100%" stop-color="#1c5d99"/>
    </linearGradient>
    <linearGradient id="accent-bc" x1="0" y1="0" x2="1" y2="0">
      <stop offset="0%" stop-color="#f6ae2d"/>
      <stop offset="100%" stop-color="#f26419"/>
    </linearGradient>
  </defs>
  <rect width="1200" height="800" fill="url(#bg-bc)"/>
  <rect x="80" y="90" width="1040" height="620" rx="36" fill="#0f2b4d" opacity="0.85"/>
  <rect x="120" y="130" width="280" height="10" rx="5" fill="url(#accent-bc)"/>
  <rect x="120" y="170" width="200" height="10" rx="5" fill="#8ecae6" opacity="0.7"/>
  <rect x="120" y="210" width="360" height="10" rx="5" fill="#8ecae6" opacity="0.5"/>

  <circle cx="980" cy="210" r="120" fill="#17385c"/>
  <path d="M920 210h120" stroke="#f6ae2d" stroke-width="10" stroke-linecap="round"/>
  <path d="M980 150v120" stroke="#f6ae2d" stroke-width="10" stroke-linecap="round"/>
  <circle cx="980" cy="210" r="36" fill="#f6ae2d"/>

  <text x="120" y="330" fill="#f9fafb" font-size="54" font-weight="700" font-family="Space Grotesk, Poppins, Arial, sans-serif">Beyond Classroom</text>
  <text x="120" y="380" fill="#cbd5e1" font-size="22" font-family="Space Grotesk, Poppins, Arial, sans-serif">Academics • Exam Prep • Courses • Projects</text>

  <g transform="translate(120 460)">
    <rect width="160" height="42" rx="21" fill="#f6ae2d"/>
    <text x="80" y="28" text-anchor="middle" fill="#102a43" font-size="18" font-weight="600" font-family="Space Grotesk, Poppins, Arial, sans-serif">PHP</text>
  </g>
  <g transform="translate(300 460)">
    <rect width="160" height="42" rx="21" fill="#8ecae6"/>
    <text x="80" y="28" text-anchor="middle" fill="#0b223d" font-size="18" font-weight="600" font-family="Space Grotesk, Poppins, Arial, sans-serif">MySQL</text>
  </g>
  <g transform="translate(480 460)">
    <rect width="220" height="42" rx="21" fill="#1d4ed8"/>
    <text x="110" y="28" text-anchor="middle" fill="#e2e8f0" font-size="18" font-weight="600" font-family="Space Grotesk, Poppins, Arial, sans-serif">JavaScript</text>
  </g>
</svg>
