<svg width="1200" height="800" viewBox="0 0 1200 800" xmlns="http://www.w3.org/2000/svg" role="img" aria-label="GestureDesk project thumbnail">
  <defs>
    <linearGradient id="bg-gd" x1="0" y1="0" x2="1" y2="1">
      <stop offset="0%" stop-color="#0f172a"/>
      <stop offset="100%" stop-color="#1e293b"/>
    </linearGradient>
    <linearGradient id="accent-gd" x1="0" y1="0" x2="1" y2="0">
      <stop offset="0%" stop-color="#22d3ee"/>
      <stop offset="100%" stop-color="#a855f7"/>
    </linearGradient>
  </defs>
  <rect width="1200" height="800" fill="url(#bg-gd)"/>

  <rect x="100" y="120" width="1000" height="520" rx="32" fill="#0b1220"/>
  <rect x="140" y="170" width="420" height="260" rx="24" fill="#111827" stroke="#1f2937" stroke-width="2"/>
  <circle cx="350" cy="300" r="92" fill="#0f172a" stroke="#334155" stroke-width="3"/>
  <path d="M300 290c20-40 46-60 78-60" stroke="url(#accent-gd)" stroke-width="10" stroke-linecap="round" fill="none"/>
  <path d="M312 340c24 26 50 40 90 40" stroke="url(#accent-gd)" stroke-width="10" stroke-linecap="round" fill="none"/>
  <circle cx="350" cy="300" r="10" fill="#e2e8f0"/>

  <g transform="translate(640 170)">
    <rect width="420" height="120" rx="24" fill="#0f172a" opacity="0.9"/>
    <path d="M40 70h340" stroke="#22d3ee" stroke-width="8" stroke-linecap="round"/>
    <path d="M60 40h160" stroke="#a855f7" stroke-width="8" stroke-linecap="round"/>
    <path d="M240 40h120" stroke="#a855f7" stroke-width="8" stroke-linecap="round"/>
  </g>

  <g transform="translate(640 320)">
    <rect width="420" height="110" rx="24" fill="#0f172a" opacity="0.85"/>
    <circle cx="70" cy="55" r="28" fill="#22d3ee"/>
    <circle cx="150" cy="55" r="28" fill="#a855f7"/>
    <circle cx="230" cy="55" r="28" fill="#f472b6"/>
    <circle cx="310" cy="55" r="28" fill="#60a5fa"/>
  </g>

  <text x="140" y="520" fill="#f8fafc" font-size="52" font-weight="700" font-family="Space Grotesk, Poppins, Arial, sans-serif">GestureDesk</text>
  <text x="140" y="570" fill="#cbd5e1" font-size="22" font-family="Space Grotesk, Poppins, Arial, sans-serif">Low-latency gesture tracking for mouse control</text>

  <g transform="translate(140 610)">
    <rect width="160" height="40" rx="20" fill="#22d3ee"/>
    <text x="80" y="26" text-anchor="middle" fill="#0f172a" font-size="18" font-weight="600" font-family="Space Grotesk, Poppins, Arial, sans-serif">Python</text>
  </g>
  <g transform="translate(320 610)">
    <rect width="160" height="40" rx="20" fill="#60a5fa"/>
    <text x="80" y="26" text-anchor="middle" fill="#0f172a" font-size="18" font-weight="600" font-family="Space Grotesk, Poppins, Arial, sans-serif">OpenCV</text>
  </g>
  <g transform="translate(500 610)">
    <rect width="180" height="40" rx="20" fill="#a855f7"/>
    <text x="90" y="26" text-anchor="middle" fill="#f8fafc" font-size="18" font-weight="600" font-family="Space Grotesk, Poppins, Arial, sans-serif">MediaPipe</text>
  </g>
  <g transform="translate(700 610)">
    <rect width="180" height="40" rx="20" fill="#f472b6"/>
    <text x="90" y="26" text-anchor="middle" fill="#0f172a" font-size="18" font-weight="600" font-family="Space Grotesk, Poppins, Arial, sans-serif">PyAutoGUI</text>
  </g>
</svg>
