<svg width="1200" height="800" viewBox="0 0 1200 800" xmlns="http://www.w3.org/2000/svg" role="img" aria-label="GestureDesk project thumbnail">
  <defs>
    <linearGradient id="bg-gd" x1="0" y1="0" x2="1" y2="1">
      <stop offset="0%" stop-color="#1f2937"/>
      <stop offset="100%" stop-color="#0f172a"/>
    </linearGradient>
    <linearGradient id="accent-gd" x1="0" y1="0" x2="1" y2="0">
      <stop offset="0%" stop-color="#60a5fa"/>
      <stop offset="100%" stop-color="#a78bfa"/>
    </linearGradient>
  </defs>
  <rect width="1200" height="800" fill="url(#bg-gd)"/>
  <rect x="90" y="90" width="1020" height="620" rx="36" fill="#0b1220" opacity="0.9"/>

  <rect x="160" y="190" width="380" height="260" rx="24" fill="#111827" stroke="#334155" stroke-width="2"/>
  <circle cx="350" cy="320" r="70" fill="#1e293b"/>
  <path d="M320 320c20-30 40-40 60-40" stroke="url(#accent-gd)" stroke-width="8" stroke-linecap="round" fill="none"/>
  <path d="M330 350c18 20 40 30 70 30" stroke="url(#accent-gd)" stroke-width="8" stroke-linecap="round" fill="none"/>

  <path d="M700 240c30 40 60 60 100 70" stroke="#60a5fa" stroke-width="8" stroke-linecap="round" fill="none"/>
  <path d="M720 320c50 20 90 20 130 0" stroke="#a78bfa" stroke-width="8" stroke-linecap="round" fill="none"/>
  <path d="M700 400c30-40 60-60 100-70" stroke="#60a5fa" stroke-width="8" stroke-linecap="round" fill="none"/>

  <text x="160" y="550" fill="#f8fafc" font-size="52" font-weight="700" font-family="Space Grotesk, Poppins, Arial, sans-serif">GestureDesk</text>
  <text x="160" y="600" fill="#cbd5e1" font-size="22" font-family="Space Grotesk, Poppins, Arial, sans-serif">Hand-gesture mouse control with smoothing and low latency</text>

  <g transform="translate(160 640)">
    <rect width="160" height="40" rx="20" fill="#60a5fa"/>
    <text x="80" y="26" text-anchor="middle" fill="#0b1220" font-size="18" font-weight="600" font-family="Space Grotesk, Poppins, Arial, sans-serif">Python</text>
  </g>
  <g transform="translate(340 640)">
    <rect width="160" height="40" rx="20" fill="#38bdf8"/>
    <text x="80" y="26" text-anchor="middle" fill="#0b1220" font-size="18" font-weight="600" font-family="Space Grotesk, Poppins, Arial, sans-serif">OpenCV</text>
  </g>
  <g transform="translate(520 640)">
    <rect width="180" height="40" rx="20" fill="#a78bfa"/>
    <text x="90" y="26" text-anchor="middle" fill="#0b1220" font-size="18" font-weight="600" font-family="Space Grotesk, Poppins, Arial, sans-serif">MediaPipe</text>
  </g>
  <g transform="translate(720 640)">
    <rect width="180" height="40" rx="20" fill="#f472b6"/>
    <text x="90" y="26" text-anchor="middle" fill="#0b1220" font-size="18" font-weight="600" font-family="Space Grotesk, Poppins, Arial, sans-serif">PyAutoGUI</text>
  </g>
</svg>
