<svg width="1200" height="800" viewBox="0 0 1200 800" xmlns="http://www.w3.org/2000/svg" role="img" aria-label="Offroad segmentation project thumbnail">
  <defs>
    <linearGradient id="bg-os" x1="0" y1="0" x2="1" y2="1">
      <stop offset="0%" stop-color="#1b140b"/>
      <stop offset="100%" stop-color="#7c2d12"/>
    </linearGradient>
    <linearGradient id="accent-os" x1="0" y1="0" x2="1" y2="0">
      <stop offset="0%" stop-color="#fbbf24"/>
      <stop offset="100%" stop-color="#fb7185"/>
    </linearGradient>
  </defs>
  <rect width="1200" height="800" fill="url(#bg-os)"/>

  <rect x="120" y="130" width="960" height="520" rx="32" fill="#2a1b0f" opacity="0.9"/>
  <path d="M180 520c120-90 240-130 360-130s240 40 360 130" fill="none" stroke="#fbbf24" stroke-width="10" stroke-linecap="round"/>
  <path d="M220 560c110-80 220-120 330-120s220 40 330 120" fill="none" stroke="#fb7185" stroke-width="8" stroke-linecap="round"/>

  <g transform="translate(160 200)">
    <rect width="420" height="180" rx="24" fill="#0f172a" opacity="0.85"/>
    <rect x="30" y="40" width="140" height="10" rx="5" fill="#fbbf24"/>
    <rect x="30" y="70" width="220" height="10" rx="5" fill="#64748b"/>
    <rect x="30" y="100" width="200" height="10" rx="5" fill="#64748b"/>
    <rect x="30" y="130" width="260" height="10" rx="5" fill="#64748b"/>
  </g>

  <circle cx="880" cy="260" r="70" fill="#1f2937" stroke="#fbbf24" stroke-width="8"/>
  <path d="M850 260h60" stroke="#fbbf24" stroke-width="8" stroke-linecap="round"/>
  <path d="M880 230v60" stroke="#fbbf24" stroke-width="8" stroke-linecap="round"/>

  <text x="160" y="430" fill="#fff7ed" font-size="50" font-weight="700" font-family="Space Grotesk, Poppins, Arial, sans-serif">Offroad Segmentation</text>
  <text x="160" y="478" fill="#fde68a" font-size="22" font-family="Space Grotesk, Poppins, Arial, sans-serif">Pixel-wise terrain labeling for safe navigation</text>

  <g transform="translate(160 520)">
    <rect width="170" height="40" rx="20" fill="#fbbf24"/>
    <text x="85" y="26" text-anchor="middle" fill="#3a1b0f" font-size="18" font-weight="600" font-family="Space Grotesk, Poppins, Arial, sans-serif">PyTorch</text>
  </g>
  <g transform="translate(350 520)">
    <rect width="190" height="40" rx="20" fill="#fb7185"/>
    <text x="95" y="26" text-anchor="middle" fill="#3a1b0f" font-size="18" font-weight="600" font-family="Space Grotesk, Poppins, Arial, sans-serif">Segmentation</text>
  </g>
  <g transform="translate(560 520)">
    <rect width="160" height="40" rx="20" fill="#fdba74"/>
    <text x="80" y="26" text-anchor="middle" fill="#3a1b0f" font-size="18" font-weight="600" font-family="Space Grotesk, Poppins, Arial, sans-serif">OpenCV</text>
  </g>
</svg>
