<svg width="1200" height="800" viewBox="0 0 1200 800" xmlns="http://www.w3.org/2000/svg" role="img" aria-label="Rural Care project thumbnail">
  <defs>
    <linearGradient id="bg-rc" x1="0" y1="0" x2="1" y2="1">
      <stop offset="0%" stop-color="#0a1f1a"/>
      <stop offset="100%" stop-color="#0f766e"/>
    </linearGradient>
    <linearGradient id="accent-rc" x1="0" y1="0" x2="1" y2="0">
      <stop offset="0%" stop-color="#22c55e"/>
      <stop offset="100%" stop-color="#5eead4"/>
    </linearGradient>
  </defs>
  <rect width="1200" height="800" fill="url(#bg-rc)"/>

  <rect x="90" y="120" width="1020" height="520" rx="32" fill="#0f172a" opacity="0.85"/>
  <rect x="140" y="170" width="360" height="16" rx="8" fill="#5eead4"/>
  <rect x="140" y="210" width="260" height="10" rx="5" fill="#94a3b8"/>
  <rect x="140" y="240" width="320" height="10" rx="5" fill="#94a3b8"/>

  <g transform="translate(620 160)">
    <rect width="420" height="220" rx="26" fill="#0b3b36"/>
    <path d="M70 170c60-60 120-90 180-90s120 30 180 90" fill="none" stroke="#5eead4" stroke-width="8"/>
    <circle cx="300" cy="90" r="46" fill="#22c55e"/>
    <path d="M300 62v56" stroke="#0a1f1a" stroke-width="10" stroke-linecap="round"/>
    <path d="M272 90h56" stroke="#0a1f1a" stroke-width="10" stroke-linecap="round"/>
  </g>

  <text x="140" y="340" fill="#f1f5f9" font-size="52" font-weight="700" font-family="Space Grotesk, Poppins, Arial, sans-serif">Rural Care</text>
  <text x="140" y="388" fill="#cbd5f5" font-size="22" font-family="Space Grotesk, Poppins, Arial, sans-serif">AI-assisted health triage for rural communities</text>

  <g transform="translate(140 440)">
    <rect width="170" height="40" rx="20" fill="#22c55e"/>
    <text x="85" y="26" text-anchor="middle" fill="#0a1f1a" font-size="18" font-weight="600" font-family="Space Grotesk, Poppins, Arial, sans-serif">React</text>
  </g>
  <g transform="translate(330 440)">
    <rect width="190" height="40" rx="20" fill="#5eead4"/>
    <text x="95" y="26" text-anchor="middle" fill="#0a1f1a" font-size="18" font-weight="600" font-family="Space Grotesk, Poppins, Arial, sans-serif">TypeScript</text>
  </g>
  <g transform="translate(540 440)">
    <rect width="170" height="40" rx="20" fill="#14b8a6"/>
    <text x="85" y="26" text-anchor="middle" fill="#ecfeff" font-size="18" font-weight="600" font-family="Space Grotesk, Poppins, Arial, sans-serif">Express</text>
  </g>
  <g transform="translate(730 440)">
    <rect width="180" height="40" rx="20" fill="#34d399"/>
    <text x="90" y="26" text-anchor="middle" fill="#0a1f1a" font-size="18" font-weight="600" font-family="Space Grotesk, Poppins, Arial, sans-serif">Postgres</text>
  </g>
</svg>
