<svg width="1200" height="800" viewBox="0 0 1200 800" fill="none" xmlns="http://www.w3.org/2000/svg">
  <defs>
    <linearGradient id="bg" x1="0" y1="0" x2="0" y2="1">
      <stop offset="0%" stop-color="#1E3A4A"/>
      <stop offset="45%" stop-color="#355E6D"/>
      <stop offset="100%" stop-color="#C68252"/>
    </linearGradient>
    <linearGradient id="dune1" x1="0" y1="0" x2="1" y2="1">
      <stop offset="0%" stop-color="#D89A5F"/>
      <stop offset="100%" stop-color="#B87445"/>
    </linearGradient>
    <linearGradient id="dune2" x1="1" y1="0" x2="0" y2="1">
      <stop offset="0%" stop-color="#E6B27A"/>
      <stop offset="100%" stop-color="#C48753"/>
    </linearGradient>
    <pattern id="grid" width="46" height="46" patternUnits="userSpaceOnUse">
      <path d="M46 0H0V46" stroke="#FFFFFF" stroke-opacity="0.08"/>
    </pattern>
  </defs>

  <rect width="1200" height="800" fill="url(#bg)"/>
  <rect width="1200" height="800" fill="url(#grid)"/>

  <path d="M0 460C110 420 220 410 330 440C450 474 520 548 640 560C760 572 840 510 955 500C1040 492 1125 520 1200 560V800H0V460Z" fill="url(#dune1)"/>
  <path d="M0 560C130 520 240 530 360 566C470 598 570 660 690 668C810 676 900 616 1018 608C1096 602 1158 620 1200 640V800H0V560Z" fill="url(#dune2)"/>

  <g opacity="0.9">
    <rect x="742" y="312" width="360" height="198" rx="16" fill="#132733" fill-opacity="0.8" stroke="#8ED1E6"/>
    <rect x="762" y="336" width="78" height="78" rx="10" fill="#D9ED92"/>
    <rect x="852" y="336" width="78" height="78" rx="10" fill="#76C893"/>
    <rect x="942" y="336" width="78" height="78" rx="10" fill="#34A0A4"/>
    <rect x="1032" y="336" width="50" height="78" rx="10" fill="#168AAD"/>

    <rect x="762" y="426" width="78" height="64" rx="10" fill="#1A759F"/>
    <rect x="852" y="426" width="78" height="64" rx="10" fill="#D68C45"/>
    <rect x="942" y="426" width="78" height="64" rx="10" fill="#B5653D"/>
    <rect x="1032" y="426" width="50" height="64" rx="10" fill="#6E3B2B"/>
  </g>

  <g>
    <path d="M194 512L324 446L454 496L324 562L194 512Z" fill="#F8CC8D" stroke="#8A5B36" stroke-width="3"/>
    <path d="M324 446L324 562" stroke="#8A5B36" stroke-width="3"/>
    <path d="M454 496L324 562" stroke="#8A5B36" stroke-width="3"/>
    <circle cx="250" cy="534" r="11" fill="#203946"/>
    <circle cx="398" cy="536" r="11" fill="#203946"/>
  </g>

  <text x="70" y="114" fill="#F3F9FB" font-size="58" font-family="Arial, sans-serif" font-weight="700">Offroad Segmentation</text>
  <text x="72" y="166" fill="#D7EAF1" font-size="28" font-family="Arial, sans-serif">10-class semantic mapping for robust autonomous navigation</text>
</svg>
